<?xml version="1.0" encoding="UTF-8" standalone="no"?>
<!-- Created with Inkscape (http://www.inkscape.org/) -->

<svg
   xmlns:dc="http://purl.org/dc/elements/1.1/"
   xmlns:cc="http://creativecommons.org/ns#"
   xmlns:rdf="http://www.w3.org/1999/02/22-rdf-syntax-ns#"
   xmlns:svg="http://www.w3.org/2000/svg"
   xmlns="http://www.w3.org/2000/svg"
   xmlns:sodipodi="http://sodipodi.sourceforge.net/DTD/sodipodi-0.dtd"
   xmlns:inkscape="http://www.inkscape.org/namespaces/inkscape"
   version="1.1"
   id="svg2"
   width="212.51671"
   height="200"
   viewBox="0 0 212.51671 200"
   sodipodi:docname="logo-white.svg"
   inkscape:version="0.92.5 (2060ec1f9f, 2020-04-08)"
   inkscape:export-filename="/home/robin/Documents/code/becode/onetheatre/logo-blacktext.png"
   inkscape:export-xdpi="153.77"
   inkscape:export-ydpi="153.77">
  <metadata
     id="metadata8">
    <rdf:RDF>
      <cc:Work
         rdf:about="">
        <dc:format>image/svg+xml</dc:format>
        <dc:type
           rdf:resource="http://purl.org/dc/dcmitype/StillImage" />
        <dc:title></dc:title>
      </cc:Work>
    </rdf:RDF>
  </metadata>
  <defs
     id="defs6" />
  <sodipodi:namedview
     pagecolor="#ffffff"
     bordercolor="#666666"
     borderopacity="1"
     objecttolerance="10"
     gridtolerance="10"
     guidetolerance="10"
     inkscape:pageopacity="0"
     inkscape:pageshadow="2"
     inkscape:window-width="1845"
     inkscape:window-height="1010"
     id="namedview4"
     showgrid="false"
     fit-margin-top="0"
     fit-margin-left="0"
     fit-margin-right="0"
     fit-margin-bottom="0"
     inkscape:zoom="1.668772"
     inkscape:cx="12.561708"
     inkscape:cy="156.78309"
     inkscape:window-x="72"
     inkscape:window-y="27"
     inkscape:window-maximized="0"
     inkscape:current-layer="svg2" />
  <path
     style="fill:#ffffff;fill-opacity:1"
     d="M 108.05078 5.9316406 A 93.644066 93.644066 0 0 0 14.40625 99.576172 A 93.644066 93.644066 0 0 0 18.339844 126.28125 L 27.332031 126.28125 A 84.322037 84.322037 0 0 1 22.880859 99.576172 A 84.322037 84.322037 0 0 1 107.20312 15.253906 A 84.322037 84.322037 0 0 1 191.52539 99.576172 A 84.322037 84.322037 0 0 1 187.10742 126.28125 L 197.73242 126.28125 A 93.644066 93.644066 0 0 0 201.69531 99.576172 A 93.644066 93.644066 0 0 0 108.05078 5.9316406 z M 48.054688 171.36133 A 93.644066 93.644066 0 0 0 108.05078 193.2207 A 93.644066 93.644066 0 0 0 168.16602 171.36133 L 151.31641 171.36133 A 84.322037 84.322037 0 0 1 107.20312 183.89844 A 84.322037 84.322037 0 0 1 63.166016 171.36133 L 48.054688 171.36133 z "
     id="path24" />
  <g
     id="g35"
     transform="matrix(1.0592292,0,0,1.0592292,-6.4945172,-4.2327892)"
     style="fill:#ffffff">
    <path
       inkscape:connector-curvature="0"
       id="path22"
       d="m 118.82455,108.92688 c -6.45535,-6.45534 -8.05704,-11.703963 -8.07107,-26.448302 -0.009,-8.761582 0.62582,-15.781883 1.92028,-21.257872 2.75072,-11.636561 3.08967,-11.982004 7.74556,-7.894077 9.69913,8.515947 23.90155,13.761274 37.46993,13.838621 4.94618,0.02819 8.99335,0.149372 8.99371,0.269279 3.6e-4,0.119907 -1.90518,4.612138 -4.23453,9.982735 -5.27167,12.154429 -10.56285,20.206493 -17.60925,26.797586 -6.46151,6.04399 -11.21696,8.24278 -17.82707,8.24278 -4.0225,0 -5.46334,-0.60651 -8.38756,-3.53075 z m 21.13907,-12.594533 c -5.01486,-6.716877 -12.78582,-9.314183 -20.37431,-6.80976 -5.87426,1.93868 -4.77869,3.31239 2.6417,3.31239 7.07533,0 13.01895,2.29908 16.82597,6.50853 2.89907,3.205513 3.66034,0.677123 0.90664,-3.01116 z m 7.96496,-12.729601 c -1.87276,-2.858192 -5.37027,-3.561704 -8.29864,-1.669242 -1.25008,0.807857 -0.84053,1.060693 1.73879,1.073454 1.97615,0.0098 4.19402,0.922776 5.35321,2.203672 2.6522,2.930646 3.46807,1.843484 1.20664,-1.607884 z m -20.24029,-7.026611 c -0.86782,-1.62154 -2.28172,-2.273662 -4.92966,-2.273662 -2.04205,0 -4.016,0.490567 -4.38656,1.090148 -0.38935,0.629969 0.64598,1.090147 2.45266,1.090147 1.71954,0 4.07791,0.695741 5.24083,1.546089 2.65567,1.941872 3.18558,1.467482 1.62273,-1.452722 z M 86.364757,92.674263 C 76.028897,89.69996 66.722075,79.80621 58.342325,62.884622 55.084033,56.305013 52.418159,50.295576 52.418159,49.530318 c 0,-0.989396 2.125944,-1.396034 7.358494,-1.407492 14.036042,-0.03073 29.296456,-5.490895 38.444125,-13.755264 l 4.312532,-3.896108 0.97306,2.565396 c 2.81121,7.411448 4.96923,20.960312 5.00996,31.454298 0.0403,10.40537 -0.23598,12.017538 -3.0381,17.723949 -3.38877,6.901071 -8.761054,11.764164 -12.827523,11.611709 -1.442357,-0.05407 -4.271034,-0.57272 -6.28595,-1.152543 z m 8.306572,-12.915164 c 3.172728,-1.934436 7.878801,-7.948636 7.889521,-10.082551 0.002,-0.445725 -2.22325,0.88975 -4.945542,2.967724 -5.758576,4.39562 -12.384421,6.466615 -18.195374,5.687203 -2.523343,-0.338452 -3.855671,-0.14098 -3.452303,0.511684 2.175126,3.519429 13.522247,4.075109 18.703698,0.91594 z M 77.044432,64.240074 80.216914,63.810488 77.491546,62.644416 c -3.21169,-1.374149 -5.919632,-0.260899 -7.768453,3.193654 -1.2519,2.339196 -1.223088,2.351424 1.43566,0.609345 1.492259,-0.977765 4.140814,-1.971069 5.885679,-2.207341 z m 20.936022,-6.604659 4.035786,0.114398 -3.042032,-1.593879 c -3.853432,-2.019017 -6.610791,-1.154099 -8.326687,2.611879 l -1.346813,2.955934 2.321982,-2.101366 c 1.485919,-1.344737 3.775126,-2.060174 6.357764,-1.986966 z"
       style="fill:#ffffff;stroke-width:1.09014726;fill-opacity:1"
       sodipodi:nodetypes="ccssssccscssscscscccsscscsssssscccscsscssssscssssscsscss" />
  </g>
  <g
     aria-label="OneTheater"
     transform="matrix(1.0336251,0,0,1.0336251,91.397883,20.630461)"
     style="font-style:normal;font-variant:normal;font-weight:normal;font-stretch:normal;font-size:40px;line-height:1.25;font-family:Lobster;-inkscape-font-specification:Lobster;letter-spacing:0px;word-spacing:0px;fill:#ffffff;fill-opacity:1;stroke:none"
     id="flowRoot14">
    <path
       d="m -63.125469,138.365 q -3.36,0 -5.28,-1.92 -1.88,-1.92 -1.88,-6.12 0,-3.56 1.28,-8 1.28,-4.44 3.72,-7.6 2.48,-3.16 5.84,-3.16 1.2,0 2.08,0.32 -1.76,1.04 -3.4,4.28 -1.6,3.24 -2.6,7.24 -1,4 -1,7.08 0,2.16 0.56,3.4 0.56,1.24 1.76,1.24 1.96,0 3.88,-2.8 1.96,-2.84 3.2,-7.12 1.28,-4.28 1.28,-8.24 0,-2.48 -0.44,-3.96 -0.4,-1.52 -1.52,-2.28 -1.12,-0.76 -3.16,-0.76 -3.08,0 -5.72,1.28 -2.64,1.24 -4.24,3.6 -1.56,2.32 -1.56,5.4 0,1.08 0.2,1.6 0.2,0.48 0.2,0.56 -2,0 -3.04,-0.8 -1,-0.8 -1,-2.56 0,-2.76 2.24,-5.28 2.28,-2.52 6,-4.08 3.76,-1.56 7.88,-1.56 5,0 7.24,2.72 2.24,2.72 2.24,7.52 0,4.28 -1.6,8.92 -1.6,4.64 -4.96,7.88 -3.32,3.2 -8.2,3.2 z"
       style="fill:#ffffff"
       id="path4629" />
    <path
       d="m -33.565508,138.365 q -2.44,0 -3.6,-1.28 -1.12,-1.32 -1.12,-3.24 0,-0.84 0.2,-1.88 0.2,-1.08 0.4,-2.08 0.24,-1 0.32,-1.28 0.32,-1.4 0.6,-2.76 0.28,-1.36 0.28,-2.2 0,-2.04 -1.44,-2.04 -1.04,0 -1.84,1.04 -0.8,1 -1.28,2.64 l -2.72,12.84 h -5.76 l 4.24,-20 h 5.76 l -0.44,2.08 q 2,-2.24 4.68,-2.24 2.04,0 3.24,1.12 1.2,1.12 1.2,3.4 0,1.16 -0.28,2.6 -0.28,1.4 -0.8,3.44 -0.32,1.24 -0.6,2.44 -0.24,1.16 -0.24,1.84 0,0.8 0.36,1.24 0.36,0.44 1.24,0.44 1.2,0 1.92,-0.84 0.72,-0.88 1.44,-2.68 h 1.68 q -1.48,4.4 -3.44,5.92 -1.92,1.48 -4,1.48 z"
       style="fill:#ffffff"
       id="path4631" />
    <path
       d="m -22.165542,138.365 q -2.92,0 -4.56,-1.52 -1.64,-1.56 -1.64,-4.84 0,-2.76 1.08,-6.08 1.08,-3.32 3.52,-5.72 2.44,-2.44 6.2,-2.44 4.4,0 4.4,3.84 0,2.24 -1.28,4.12 -1.28,1.88 -3.4,3.04 -2.12,1.12 -4.52,1.28 -0.08,0.88 -0.08,1.2 0,3.32 2.48,3.32 1.12,0 2.4,-0.6 1.28,-0.6 2.32,-1.52 -1.08,5.92 -6.92,5.92 z m 0.08,-10.24 q 1.52,-0.04 2.84,-1 1.36,-0.96 2.16,-2.44 0.84,-1.52 0.84,-3.16 0,-1.64 -1,-1.64 -1.4,0 -2.8,2.56 -1.36,2.52 -2.04,5.68 z"
       style="fill:#ffffff"
       id="path4633" />
    <path
       d="m 19.914427,138.365 q -2.44,0 -3.6,-1.28 -1.12,-1.32 -1.12,-3.24 0,-0.84 0.2,-1.88 0.2,-1.08 0.4,-2.08 0.24,-1 0.32,-1.28 0.32,-1.4 0.6,-2.76 0.28,-1.36 0.28,-2.2 0,-2.04 -1.44,-2.04 -1,0 -1.8,0.96 -0.76,0.96 -1.24,2.48 -1.2,6.28 -2.44,13.08 H 4.3144269 l 5.48,-25.52 q -1.4,-0.12 -5.28,-0.68 l -5.64,26.2 h -5.76 l 5.72,-26.56 q -3.8,0.16 -5.92,1.96 -2.12,1.8 -2.12,6.2 0,1.48 0.28,2.08 0.28,0.56 0.28,0.64 -2.1599999,0 -3.2399999,-0.88 -1.04,-0.92 -1.04,-3 0,-2.8 1.52,-5.16 1.5199999,-2.36 4.6799999,-3.8 3.16,-1.44 7.88,-1.44 0.8,0 3.4,0.36 4.76,0.68 7.4000001,0.68 3.44,0 4.84,-0.96 -0.6,1.12 -1,2.12 -0.36,1 -0.92,3.28 -0.56,2.24 -1.44,6.64 2.04,-2.32 4.76,-2.32 2.04,0 3.24,1.12 1.2,1.12 1.2,3.4 0,1.16 -0.28,2.6 -0.28,1.4 -0.8,3.44 -0.32,1.24 -0.6,2.44 -0.24,1.16 -0.24,1.84 0,0.8 0.36,1.24 0.36,0.44 1.24,0.44 1.2,0 1.92,-0.84 0.72,-0.88 1.44,-2.68 h 1.68 q -1.48,4.4 -3.44,5.92 -1.92,1.48 -4,1.48 z"
       style="fill:#ffffff"
       id="path4635" />
    <path
       d="m 31.394377,138.365 q -2.96,0 -4.6,-1.52 -1.64,-1.56 -1.64,-4.84 0,-2.76 1.08,-6.08 1.08,-3.32 3.52,-5.72 2.44,-2.44 6.2,-2.44 4.4,0 4.4,3.84 0,2.24 -1.28,4.12 -1.28,1.88 -3.4,3.04 -2.12,1.12 -4.52,1.28 -0.08,1.2 -0.08,1.6 0,1.96 0.68,2.68 0.68,0.68 2.2,0.68 2.16,0 3.68,-1 1.56,-1 3.4,-3.04 h 1.36 q -4.44,7.4 -11,7.4 z m 0.08,-10.24 q 1.48,-0.08 2.8,-1.04 1.36,-0.96 2.16,-2.44 0.84,-1.48 0.84,-3.12 0,-1.64 -1,-1.64 -1.44,0 -2.84,2.52 -1.36,2.52 -1.96,5.72 z"
       style="fill:#ffffff"
       id="path4637" />
    <path
       d="m 45.834332,138.365 q -2.28,0 -3.8,-1.56 -1.52,-1.56 -1.52,-4.88 0,-2.96 1.16,-6.2 1.2,-3.28 3.52,-5.52 2.36,-2.28 5.6,-2.28 1.64,0 2.44,0.56 0.8,0.56 0.8,1.48 v 0.28 l 0.44,-2.12 h 5.76 l -2.88,13.6 q -0.16,0.6 -0.16,1.28 0,1.72 1.64,1.72 1.12,0 1.92,-1.04 0.84,-1.04 1.32,-2.72 h 1.68 q -1.48,4.32 -3.68,5.88 -2.16,1.52 -4.36,1.52 -1.68,0 -2.72,-0.92 -1,-0.96 -1.2,-2.76 -1.16,1.64 -2.6,2.68 -1.4,1 -3.36,1 z m 2.6,-3.88 q 1,0 1.96,-0.92 1,-0.96 1.36,-2.6 l 1.92,-9.04 q 0,-0.52 -0.4,-1 -0.4,-0.52 -1.24,-0.52 -1.6,0 -2.88,1.88 -1.28,1.84 -2,4.48 -0.72,2.6 -0.72,4.6 0,2 0.56,2.56 0.6,0.56 1.44,0.56 z"
       style="fill:#ffffff"
       id="path4639" />
    <path
       d="m 66.034295,138.365 q -1.92,0 -3.12,-1.2 -1.16,-1.2 -1.16,-3.6 0,-1 0.32,-2.6 l 2.4,-11.24 h -1.32 l 0.32,-1.6 h 1.32 l 1.2,-5.52 5.92,-0.8 -1.36,6.32 h 2.4 l -0.32,1.6 h -2.4 l -2.56,12 q -0.16,0.6 -0.16,1.28 0,0.8 0.36,1.16 0.4,0.32 1.28,0.32 1.16,0 2.16,-0.96 1,-1 1.44,-2.56 h 1.68 q -1.48,4.32 -3.8,5.88 -2.32,1.52 -4.6,1.52 z"
       style="fill:#ffffff"
       id="path4641" />
    <path
       d="m 78.474227,138.365 q -2.96,0 -4.6,-1.52 -1.64,-1.56 -1.64,-4.84 0,-2.76 1.08,-6.08 1.08,-3.32 3.52,-5.72 2.44,-2.44 6.2,-2.44 4.4,0 4.4,3.84 0,2.24 -1.28,4.12 -1.28,1.88 -3.4,3.04 -2.12,1.12 -4.52,1.28 -0.08,1.2 -0.08,1.6 0,1.96 0.68,2.68 0.68,0.68 2.2,0.68 2.16,0 3.68,-1 1.56,-1 3.4,-3.04 h 1.36 q -4.44,7.4 -11,7.4 z m 0.08,-10.24 q 1.48,-0.08 2.8,-1.04 1.36,-0.96 2.16,-2.44 0.84,-1.48 0.84,-3.12 0,-1.64 -1,-1.64 -1.44,0 -2.84,2.52 -1.36,2.52 -1.96,5.72 z"
       style="fill:#ffffff"
       id="path4643" />
    <path
       d="m 90.834182,118.125 h 5.76 l -0.52,2.48 q 1.36,-1.2 2.44,-1.84 1.12,-0.64 2.399998,-0.64 1.28,0 2,0.88 0.76,0.88 0.76,2.12 0,1.16 -0.76,2.04 -0.76,0.88 -2.12,0.88 -0.879998,0 -1.199998,-0.4 -0.28,-0.44 -0.44,-1.24 -0.12,-0.52 -0.24,-0.76 -0.12,-0.24 -0.44,-0.24 -0.84,0 -1.44,0.36 -0.56,0.32 -1.48,1.16 l -3.2,15.2 h -5.76 z"
       style="fill:#ffffff"
       id="path4645" />
  </g>
</svg>
